<svg width="182" height="120" viewBox="0 0 182 120" fill="none" xmlns="http://www.w3.org/2000/svg">
<g clip-path="url(#clip0_2203_2862)">
<path d="M126.298 64.6397C130.641 64.6397 134.542 64.6302 138.443 64.6491C139.535 64.6538 139.845 63.8158 140.297 63.0955C142.744 59.1879 145.238 55.3086 147.619 51.3586C148.353 50.1393 148.711 49.8662 149.61 51.2409C154.607 58.896 159.708 66.4852 164.692 74.1496C165.689 75.6844 167.082 76.9979 167.727 79.0694C166.56 79.0694 165.572 79.0694 164.588 79.0694C110.721 79.0694 56.8593 79.0553 2.99249 79.14C0.550202 79.14 -0.00978386 78.5798 -0.00037234 76.1505C0.0984486 51.5987 0.0749198 27.047 0.0137449 2.49519C0.00903918 0.616737 0.376089 0 2.41368 0C39.3445 0.0706187 76.2753 0.0659108 113.201 0.0235396C115.013 0.0235396 116.086 0.489623 117.14 2.10915C125.154 14.4392 133.286 26.6939 141.464 38.9156C142.344 40.2291 142.179 41.0106 141.361 42.2112C136.391 49.499 131.516 56.8481 126.293 64.6444L126.298 64.6397ZM56.1158 37.7716C56.2382 37.7904 56.3652 37.8093 56.4876 37.8281C56.977 46.1846 57.5276 54.5412 57.904 62.9024C57.9746 64.4796 58.6005 64.682 59.8569 64.6632C62.6004 64.6208 65.3438 64.5502 68.0826 64.6773C69.6119 64.7479 69.8849 64.2771 69.7719 62.8224C68.5908 47.4558 67.4661 32.0844 66.3791 16.7084C66.2944 15.5314 65.8379 15.2678 64.8027 15.2866C62.2945 15.329 59.7816 15.4278 57.2829 15.2583C55.6594 15.1501 54.8876 15.8186 54.2665 17.1745C50.916 24.4859 47.5749 31.802 44.0879 39.0474C43.1326 41.0295 42.5962 43.2987 40.8268 44.9747C40.5256 44.4427 40.2715 44.0614 40.0786 43.6471C36.041 35.0222 31.9565 26.4161 28.0271 17.7394C27.2036 15.9175 26.286 15.0606 24.2155 15.2583C22.0414 15.4608 19.825 15.3996 17.6415 15.2772C16.0604 15.1877 15.7357 15.8045 15.6416 17.2875C15.1334 25.0979 14.4793 32.8989 13.891 40.7093C13.3405 48.049 12.7993 55.3933 12.277 62.733C12.2158 63.6039 11.8299 64.6914 13.444 64.6632C16.578 64.6114 19.7121 64.6255 22.8461 64.6491C23.7261 64.6538 24.0602 64.3619 24.0931 63.425C24.2014 60.3743 24.4131 57.3236 24.5778 54.2728C24.8696 48.8446 25.1566 43.4117 25.4437 37.9834C25.9801 38.1671 26.1166 38.4072 26.2389 38.6567C28.9212 44.1226 31.6365 49.5696 34.2529 55.0638C34.8599 56.3349 35.5328 56.961 37.0434 56.8669C39.4621 56.7162 41.9138 56.6645 44.3232 56.8857C46.4173 57.0787 47.3066 56.1654 48.116 54.3999C50.6854 48.8164 53.4335 43.3128 56.1111 37.7763L56.1158 37.7716ZM99.0229 15.4796V15.296C97.3759 15.296 95.7289 15.3666 94.0913 15.2725C92.7972 15.1971 92.129 15.6256 91.7149 16.9108C90.9243 19.3636 89.922 21.7506 89.0232 24.1704C84.2045 37.1313 79.3952 50.0922 74.5577 63.0437C74.0871 64.3054 74.3554 64.7056 75.7247 64.6679C78.6988 64.5879 81.6822 64.5455 84.6516 64.6726C86.1339 64.7338 86.708 64.1171 87.0797 62.8224C87.7056 60.6426 88.4868 58.51 89.1503 56.3443C89.4326 55.4216 89.8326 55.012 90.929 55.0308C96.2513 55.1108 101.578 55.0779 106.905 55.0543C107.936 55.0543 108.571 55.1438 108.867 56.4338C109.366 58.6277 110.232 60.7415 110.933 62.8883C111.263 63.8864 111.587 64.7103 112.976 64.6632C116.105 64.5596 119.239 64.6208 122.373 64.6491C123.563 64.6585 124.109 64.4984 123.563 63.0531C118.331 49.2212 113.164 35.3611 107.983 21.5057C107.225 19.4766 107.103 16.6284 105.456 15.6774C103.818 14.7311 101.211 15.4702 99.0277 15.4702L99.0229 15.4796Z" fill="#010101"/>
<path d="M129.47 0.0941425C130.298 0.0941425 130.905 0.0941425 131.512 0.0941425C147.347 0.0941425 163.182 0.131806 179.021 0.0423554C181.101 0.0329396 181.619 0.579058 181.614 2.65996C181.534 27.8332 181.562 53.0017 181.562 78.1702C180.668 78.4856 180.329 77.7841 180.052 77.3322C173.887 67.2855 167.407 57.4412 160.777 47.7053C159.356 45.6197 158.339 43.2704 156.664 41.3684C155.525 40.0737 155.86 38.9862 156.768 37.6445C161.681 30.366 166.49 23.0217 171.563 15.3572C167.36 15.3572 163.558 15.3666 159.756 15.3478C158.786 15.3478 158.457 16.0163 158.038 16.699C155.817 20.2864 153.577 23.8644 151.314 27.4283C149.813 29.7869 149.036 29.7964 147.507 27.4989C142.594 20.1028 137.681 12.7019 132.787 5.28697C131.724 3.67686 130.194 2.38219 129.474 0.0941425H129.47Z" fill="#FADA07"/>
<path d="M7.80214 118.842C8.59741 117.552 9.03976 115.65 11.2609 117.378C12.0185 117.966 12.1926 117.331 12.3432 116.799C12.6914 115.556 12.9173 114.412 14.762 115.259C15.6984 115.688 16.2866 114.996 16.1172 113.819C15.9196 112.467 16.3384 111.432 17.976 111.573C19.2418 111.681 18.9924 110.966 18.9736 110.146C18.9454 108.932 18.3666 107.416 20.8653 107.745C22.0653 107.905 21.463 106.559 20.983 105.829C20.2112 104.657 19.2136 103.461 21.7641 103.174C22.4606 103.099 22.2629 101.969 21.3594 101.183C20.3101 100.269 18.2113 99.4359 21.3312 98.4002C22.2818 98.0848 21.6512 97.4633 21.1994 97.0443C20.2301 96.1592 18.4325 95.7685 19.8348 93.697C20.2865 93.0285 18.9171 92.7648 18.1878 92.52C17.1431 92.1716 15.1008 92.4541 16.889 90.2225C17.5148 89.441 16.216 89.1162 15.4914 89.1303C14.1126 89.1538 12.3197 90.0954 12.9691 87.1812C13.1714 86.2726 11.8067 86.6492 11.0821 86.8705C9.85856 87.2424 8.44683 88.2028 8.3386 85.7124C8.30566 84.9826 7.51038 85.1521 7.02569 85.4393C6.55982 85.7124 6.16924 86.1125 5.72219 86.428C5.25162 86.7622 4.71046 86.9223 4.17871 86.6304C3.81166 86.428 3.68931 86.0325 3.82577 85.6135C4.02812 84.9779 4.55046 84.8461 5.12927 84.8461C12.5738 84.8461 20.0183 84.8461 27.4628 84.8367C28.3146 84.8367 28.7051 85.2792 28.851 86.1031C29.4392 89.4363 30.0463 92.7695 30.6815 96.0933C31.3968 99.822 32.865 103.358 33.5238 107.143C35.185 103.329 36.1167 99.4218 36.9637 95.4295C37.6602 92.1528 39.006 88.9514 39.8813 85.6606C40.0225 85.1333 40.3519 84.8744 40.8836 84.8555C41.1989 84.8461 41.5095 84.8273 41.8248 84.8367C44.3235 84.9261 47.3541 83.8857 49.1705 85.2416C50.9587 86.5786 50.8457 89.747 51.4904 92.134C52.8363 97.1008 54.1162 102.086 55.5891 107.698C57.5891 102.699 58.2197 98.0094 59.3161 93.4569C59.5702 92.3929 59.862 91.343 60.1208 90.2884C60.5631 88.4947 60.2384 85.7736 61.6972 85.1662C63.716 84.3282 66.3089 84.8649 68.6523 84.832C69.9699 84.8131 69.6782 85.5664 69.4429 86.3997C67.9276 91.8091 66.4406 97.2232 64.9583 102.637C63.716 107.18 62.4219 111.709 61.3019 116.281C60.8125 118.282 60.1161 119.539 57.7397 119.223C55.735 118.96 53.1374 120.01 51.8198 118.814C50.5775 117.689 50.6387 115.123 50.1305 113.188C48.7376 107.905 47.3682 102.623 45.9282 97.355C45.7117 96.5688 45.6365 95.6413 44.62 94.874C44.1447 96.4841 43.7212 97.9812 43.2553 99.4689C42.0977 103.183 41.2225 106.969 39.919 110.66C39.2225 112.632 38.8037 114.916 38.4555 117.1C38.2108 118.621 37.5237 119.256 35.8061 119.237C26.8699 119.143 17.9336 119.214 8.9927 119.233C8.60683 119.233 8.20684 119.327 7.77391 118.842H7.80214Z" fill="#FADA07"/>
<path d="M145.912 102.199C145.869 112.618 138.443 120 128.11 119.901C117.762 119.802 110.661 112.472 110.76 101.842C110.854 91.8372 117.385 84.121 128.448 84.2434C138.858 84.3611 145.954 91.5971 145.912 102.199ZM137.324 103.687C137.418 99.7842 137.149 97.1854 135.724 94.9445C134.373 92.8212 132.175 92.1809 129.743 91.5218C125.634 90.406 120.26 93.0331 119.653 97.3596C119.22 100.434 119.056 103.583 119.912 106.686C121.484 112.401 127.757 114.934 132.858 111.865C136.453 109.699 137.291 106.243 137.324 103.687Z" fill="#FADA07"/>
<path d="M72.4875 98.1505C73.4334 91.8748 77.9039 86.1641 85.2307 84.667C95.7716 82.5108 104.534 88.0096 106.529 97.1053C108.03 103.955 107.037 110.368 101.574 115.461C99.4845 117.411 97.0234 118.658 94.2799 119.289C86.9954 120.974 80.412 119.877 75.5651 113.682C73.8146 111.446 72.6758 108.72 72.4405 105.758C72.4593 103.221 72.4734 100.683 72.4875 98.1458V98.1505ZM80.5344 105.636C82.1438 111.06 86.0072 113.348 89.8236 113.173C93.9788 112.985 97.1457 110.372 98.261 105.773C98.7975 103.555 98.5528 101.267 98.421 99.0026C98.2233 95.5376 95.447 92.1479 92.0588 91.2534C86.7695 89.8598 82.3038 92.6657 80.5203 98.513C80.0497 100.886 80.0403 103.263 80.5344 105.636Z" fill="#FADA07"/>
<path d="M151.309 85.0297C157.695 84.8366 164.132 84.0928 170.334 86.3338C175.388 88.1604 178.762 91.4983 180.861 96.6723C185.261 107.505 176.226 117.688 166.151 118.861C161.332 119.421 156.49 119.322 151.657 119.002C151.587 117.524 151.464 116.045 151.455 114.567C151.394 104.723 151.356 94.8786 151.309 85.0297ZM159.408 101.94H159.431C159.431 104.059 159.436 106.178 159.431 108.291C159.417 112.919 159.422 112.962 164.057 112.369C171.539 111.418 175.365 105.142 172.433 97.5103C170.885 93.4851 165.153 91.0746 160.485 91.5548C159.295 91.6772 159.412 92.4493 159.412 93.2309C159.412 96.1309 159.412 99.0357 159.412 101.936L159.408 101.94Z" fill="#FADA07"/>
<path d="M6.17398 102.435C6.18339 104.182 4.85637 105.504 3.18112 105.429C1.38352 105.349 0.503541 104.224 0.334133 102.576C0.169431 100.975 1.63763 99.4736 3.22347 99.5301C5.09636 99.6007 6.03281 100.679 6.16928 102.435H6.17398Z" fill="#FADA07"/>
<path d="M151.309 85.0296C151.356 94.8739 151.389 104.718 151.455 114.567C151.464 116.045 151.587 117.524 151.657 119.002C151.573 119.049 151.483 119.068 151.389 119.054L151.441 119.058C151.356 118.847 151.196 118.635 151.196 118.418C151.182 107.289 150.951 96.1544 151.309 85.0249V85.0296Z" fill="#FAFAFA"/>
<path d="M2.53638 119.317C3.82576 118.107 4.4328 117.081 5.73159 117.5C6.13628 117.632 6.3104 118.107 6.11746 118.451C5.38807 119.765 4.1928 119.073 2.53638 119.313V119.317Z" fill="#FADA07"/>
<path d="M72.4875 98.1506C72.4734 100.688 72.4546 103.226 72.4405 105.763C71.9276 103.221 71.8428 100.683 72.4875 98.1506Z" fill="#FAFAFA"/>
<path d="M151.435 119.063L151.384 119.054L151.38 119.146L151.435 119.063Z" fill="#FADA07"/>
<path d="M56.1162 37.7716C53.4386 43.3081 50.6904 48.8069 48.1211 54.3952C47.307 56.1607 46.4223 57.074 44.3283 56.881C41.9189 56.6597 39.4672 56.7115 37.0484 56.8621C35.5332 56.9563 34.865 56.3301 34.2579 55.059C31.6415 49.5649 28.9263 44.1178 26.244 38.6519C26.1217 38.4024 25.9852 38.1576 25.4487 37.9787C25.1617 43.4069 24.8746 48.8399 24.5829 54.2681C24.4182 57.3188 24.2064 60.3648 24.0982 63.4203C24.0653 64.3524 23.7311 64.649 22.8512 64.6443C19.7171 64.6208 16.5831 64.6067 13.4491 64.6584C11.835 64.6867 12.2209 63.5945 12.282 62.7282C12.8044 55.3839 13.3455 48.0442 13.8961 40.7046C14.4843 32.8989 15.1384 25.0978 15.6467 17.2827C15.7408 15.7997 16.0655 15.183 17.6466 15.2724C19.8348 15.3948 22.0465 15.456 24.2205 15.2536C26.2911 15.0606 27.2087 15.9127 28.0322 17.7347C31.9568 26.4114 36.0461 35.0127 40.0837 43.6423C40.2766 44.0566 40.5307 44.438 40.8319 44.9699C42.6012 43.2939 43.1424 41.0247 44.093 39.0427C47.5799 31.7972 50.9163 24.4811 54.2715 17.1697C54.8927 15.8186 55.6644 15.1453 57.2879 15.2536C59.782 15.4231 62.2996 15.3242 64.8077 15.2818C65.843 15.263 66.3042 15.5267 66.3842 16.7036C67.4665 32.0797 68.5912 47.451 69.777 62.8176C69.8899 64.2724 69.617 64.7479 68.0876 64.6726C65.3536 64.5454 62.6054 64.6161 59.862 64.6584C58.6102 64.6773 57.9797 64.4748 57.9091 62.8977C57.5326 54.5364 56.982 46.1799 56.4926 37.8233C56.3703 37.8045 56.2432 37.7857 56.1209 37.7668L56.1162 37.7716Z" fill="#FAFAFA"/>
<path d="M99.0233 15.4796C101.207 15.4796 103.814 14.7405 105.451 15.6868C107.094 16.6378 107.216 19.486 107.978 21.5152C113.164 35.3658 118.331 49.2259 123.559 63.0625C124.105 64.5125 123.559 64.6726 122.369 64.6585C119.235 64.6302 116.101 64.5737 112.971 64.6726C111.583 64.7197 111.258 63.8958 110.929 62.8977C110.223 60.7509 109.362 58.637 108.863 56.4432C108.567 55.1485 107.931 55.059 106.901 55.0637C101.574 55.0873 96.247 55.1202 90.9247 55.0402C89.8283 55.0261 89.4283 55.431 89.146 56.3537C88.4824 58.5193 87.7013 60.652 87.0754 62.8318C86.7037 64.1265 86.1296 64.7432 84.6473 64.682C81.6779 64.5549 78.6945 64.5973 75.7204 64.6773C74.3511 64.715 74.0828 64.3101 74.5534 63.0531C79.3956 50.1016 84.2002 37.136 89.0189 24.1798C89.9177 21.76 90.92 19.3778 91.7106 16.9202C92.1247 15.635 92.7929 15.2065 94.087 15.2819C95.7246 15.376 97.3763 15.3054 99.0186 15.3054V15.489L99.0233 15.4796ZM92.6423 45.4925C96.4211 45.4925 99.988 45.4313 103.555 45.5255C104.981 45.5632 105.32 45.1818 104.891 43.8259C102.934 37.6209 101.028 31.4018 98.9763 24.7824C96.8164 31.8537 94.7599 38.5719 92.6423 45.4973V45.4925Z" fill="#FAFAFA"/>
<path d="M80.525 98.5178C80.525 100.891 80.5344 103.268 80.5391 105.641C80.045 103.268 80.0544 100.895 80.525 98.5178Z" fill="#FAFAFA"/>
<path d="M92.6423 45.4926C94.7599 38.572 96.8163 31.8491 98.9763 24.7778C101.028 31.3972 102.934 37.621 104.891 43.8213C105.32 45.1772 104.981 45.5586 103.555 45.5209C99.988 45.4267 96.4211 45.4879 92.6423 45.4879V45.4926Z" fill="#010101"/>
</g>
<defs>
<clipPath id="clip0_2203_2862">
<rect width="182" height="120" fill="white"/>
</clipPath>
</defs>
</svg>
