<svg width="91" height="60" viewBox="0 0 91 60" fill="none" xmlns="http://www.w3.org/2000/svg">
<g clip-path="url(#clip0_2203_2904)">
<path d="M63.1488 32.3198C65.3205 32.3198 67.271 32.3151 69.2216 32.3245C69.7674 32.3269 69.9227 31.9079 70.1486 31.5477C71.3721 29.5939 72.6191 27.6543 73.8097 25.6793C74.1767 25.0696 74.3555 24.9331 74.8049 25.6205C77.3037 29.448 79.8542 33.2426 82.3459 37.0748C82.8447 37.8422 83.5412 38.499 83.8635 39.5347C83.28 39.5347 82.7859 39.5347 82.2942 39.5347C55.3607 39.5347 28.4297 39.5276 1.49624 39.57C0.275097 39.57 -0.00489575 39.2899 -0.000189985 38.0753C0.0492205 25.7994 0.0374561 13.5235 0.00686866 1.2476C0.00451578 0.308368 0.188041 0 1.20684 0C19.6722 0.0353094 38.1376 0.0329554 56.6007 0.0117698C57.5066 0.0117698 58.043 0.244812 58.5701 1.05457C62.577 7.21959 66.6428 13.3469 70.7321 19.4578C71.1721 20.1146 71.0897 20.5053 70.6803 21.1056C68.1957 24.7495 65.7581 28.424 63.1464 32.3222L63.1488 32.3198ZM28.0579 18.8858C28.1191 18.8952 28.1826 18.9046 28.2438 18.914C28.4885 23.0923 28.7638 27.2706 28.952 31.4512C28.9873 32.2398 29.3002 32.341 29.9284 32.3316C31.3002 32.3104 32.6719 32.2751 34.0413 32.3387C34.806 32.374 34.9424 32.1386 34.886 31.4112C34.2954 23.7279 33.7331 16.0422 33.1895 8.35419C33.1472 7.7657 32.919 7.63388 32.4013 7.6433C31.1472 7.66448 29.8908 7.71392 28.6414 7.62917C27.8297 7.57503 27.4438 7.90929 27.1332 8.58723C25.458 12.2429 23.7874 15.901 22.0439 19.5237C21.5663 20.5147 21.2981 21.6493 20.4134 22.4873C20.2628 22.2214 20.1358 22.0307 20.0393 21.8235C18.0205 17.5111 15.9782 13.2081 14.0136 8.86971C13.6018 7.95873 13.143 7.53031 12.1077 7.62917C11.0207 7.73039 9.9125 7.69979 8.82076 7.63859C8.03019 7.59386 7.86784 7.90223 7.82079 8.64373C7.56667 12.5489 7.23962 16.4495 6.94551 20.3547C6.67023 24.0245 6.39964 27.6967 6.13847 31.3665C6.10789 31.802 5.91495 32.3457 6.72199 32.3316C8.28901 32.3057 9.85603 32.3128 11.423 32.3245C11.863 32.3269 12.0301 32.1809 12.0466 31.7125C12.1007 30.1871 12.2066 28.6618 12.2889 27.1364C12.4348 24.4223 12.5783 21.7058 12.7218 18.9917C12.9901 19.0835 13.0583 19.2036 13.1195 19.3283C14.4606 22.0613 15.8182 24.7848 17.1264 27.5319C17.4299 28.1674 17.7664 28.4805 18.5217 28.4334C19.7311 28.3581 20.9569 28.3322 22.1616 28.4429C23.2086 28.5394 23.6533 28.0827 24.058 27.2C25.3427 24.4082 26.7168 21.6564 28.0556 18.8881L28.0579 18.8858ZM49.5115 7.73981V7.64801C48.688 7.64801 47.8645 7.68331 47.0457 7.63624C46.3986 7.59857 46.0645 7.81278 45.8574 8.45541C45.4622 9.68182 44.961 10.8753 44.5116 12.0852C42.1022 18.5657 39.6976 25.0461 37.2788 31.5218C37.0436 32.1527 37.1777 32.3528 37.8624 32.334C39.3494 32.2939 40.8411 32.2727 42.3258 32.3363C43.0669 32.3669 43.354 32.0585 43.5399 31.4112C43.8528 30.3213 44.2434 29.255 44.5751 28.1722C44.7163 27.7108 44.9163 27.506 45.4645 27.5154C48.1256 27.5554 50.7891 27.5389 53.4525 27.5272C53.9678 27.5272 54.2855 27.5719 54.4337 28.2169C54.6831 29.3138 55.116 30.3708 55.4666 31.4442C55.6313 31.9432 55.7937 32.3551 56.4878 32.3316C58.0524 32.2798 59.6194 32.3104 61.1865 32.3245C61.7817 32.3292 62.0547 32.2492 61.7817 31.5265C59.1653 24.6106 56.5819 17.6806 53.9914 10.7529C53.6125 9.73832 53.5514 8.31418 52.7279 7.83868C51.9091 7.36553 50.6056 7.7351 49.5138 7.7351L49.5115 7.73981Z" fill="#010101"/>
<path d="M64.7348 0.0470789C65.1489 0.0470789 65.4524 0.0470789 65.756 0.0470789C73.6734 0.0470789 81.5908 0.0659105 89.5106 0.0211853C90.5506 0.0164774 90.8094 0.289536 90.8071 1.32999C90.7671 13.9166 90.7812 26.5008 90.7812 39.0851C90.3341 39.2428 90.1647 38.8921 90.0259 38.6661C86.9436 33.6427 83.7037 28.7206 80.3885 23.8526C79.6779 22.8098 79.1697 21.6352 78.3321 20.6842C77.7627 20.0369 77.9298 19.4931 78.3839 18.8222C80.8403 15.183 83.2449 11.5108 85.7813 7.67861C83.6802 7.67861 81.7791 7.68331 79.8779 7.6739C79.3932 7.6739 79.2285 8.00816 79.0191 8.34948C77.9086 10.1432 76.7886 11.9322 75.6569 13.7141C74.9063 14.8935 74.5181 14.8982 73.7534 13.7495C71.297 10.0514 68.8406 6.35097 66.3936 2.64349C65.8618 1.83844 65.0971 1.1911 64.7372 0.0470789H64.7348Z" fill="#FADA07"/>
<path d="M3.90107 59.4209C4.29871 58.7759 4.51988 57.8249 5.63044 58.6888C6.00926 58.9831 6.09631 58.6653 6.1716 58.3993C6.34572 57.7779 6.45866 57.2059 7.38098 57.6296C7.84921 57.8438 8.14332 57.4977 8.05861 56.9093C7.95979 56.2337 8.1692 55.7158 8.988 55.7864C9.62093 55.8406 9.49622 55.4828 9.48681 55.0732C9.47269 54.4658 9.18329 53.7079 10.4327 53.8727C11.0327 53.9527 10.7315 53.2795 10.4915 52.9146C10.1056 52.3285 9.60681 51.7305 10.8821 51.587C11.2303 51.5493 11.1315 50.9843 10.6797 50.5912C10.155 50.1346 9.10565 49.7179 10.6656 49.2C11.1409 49.0423 10.8256 48.7316 10.5997 48.5221C10.115 48.0796 9.21623 47.8842 9.91739 46.8484C10.1433 46.5142 9.45858 46.3824 9.09388 46.26C8.57154 46.0858 7.55039 46.227 8.44449 45.1112C8.75742 44.7205 8.10802 44.558 7.74568 44.5651C7.05629 44.5769 6.15984 45.0477 6.48454 43.5906C6.58571 43.1363 5.90338 43.3246 5.54103 43.4352C4.92928 43.6212 4.22342 44.1014 4.1693 42.8561C4.15283 42.4913 3.7552 42.576 3.51285 42.7196C3.27991 42.8561 3.08462 43.0562 2.8611 43.2139C2.62581 43.3811 2.35523 43.4611 2.08936 43.3152C1.90583 43.2139 1.84466 43.0162 1.91289 42.8067C2.01406 42.4889 2.27523 42.423 2.56464 42.423C6.28689 42.423 10.0092 42.423 13.7314 42.4183C14.1573 42.4183 14.3526 42.6396 14.4255 43.0515C14.7196 44.7181 15.0231 46.3847 15.3408 48.0466C15.6984 49.9109 16.4325 51.6788 16.7619 53.5713C17.5925 51.6646 18.0584 49.7109 18.4819 47.7147C18.8301 46.0763 19.503 44.4757 19.9407 42.8302C20.0112 42.5666 20.1759 42.4371 20.4418 42.4277C20.5995 42.423 20.7548 42.4136 20.9124 42.4183C22.1618 42.463 23.677 41.9428 24.5852 42.6207C25.4793 43.2893 25.4229 44.8735 25.7452 46.0669C26.4181 48.5504 27.0581 51.0432 27.7946 53.8491C28.7945 51.3492 29.1098 49.0047 29.6581 46.7284C29.7851 46.1964 29.931 45.6715 30.0604 45.1442C30.2816 44.2473 30.1192 42.8867 30.8486 42.5831C31.858 42.1641 33.1544 42.4324 34.3262 42.4159C34.985 42.4065 34.8391 42.7832 34.7215 43.1998C33.9638 45.9045 33.2203 48.6116 32.4792 51.3186C31.858 53.5902 31.211 55.8547 30.651 58.1404C30.4063 59.1408 30.058 59.7693 28.8698 59.6116C27.8675 59.4798 26.5687 60.0047 25.9099 59.4068C25.2888 58.8442 25.3193 57.5613 25.0652 56.5938C24.3688 53.9527 23.6841 51.3115 22.9641 48.6775C22.8559 48.2844 22.8182 47.8206 22.31 47.4369C22.0724 48.242 21.8606 48.9905 21.6277 49.7344C21.0489 51.5917 20.6112 53.4842 19.9595 55.3298C19.6113 56.3161 19.4018 57.4577 19.2277 58.55C19.1054 59.3103 18.7619 59.6281 17.9031 59.6187C13.4349 59.5716 8.96683 59.6069 4.49635 59.6163C4.30342 59.6163 4.10342 59.6634 3.88696 59.4209H3.90107Z" fill="#FADA07"/>
<path d="M72.9558 51.0997C72.9346 56.309 69.2217 60 64.0548 59.9506C58.8808 59.9011 55.3303 56.236 55.3797 50.9208C55.4268 45.9186 58.6926 42.0605 64.2242 42.1217C69.4288 42.1805 72.9769 45.7986 72.9558 51.0997ZM68.6618 51.8435C68.7088 49.8921 68.5747 48.5927 67.8618 47.4722C67.1865 46.4106 66.0877 46.0905 64.8713 45.7609C62.8172 45.203 60.1302 46.5165 59.8267 48.6798C59.6102 50.217 59.5279 51.7918 59.9561 53.343C60.742 56.2007 63.8783 57.4671 66.4289 55.9324C68.2265 54.8495 68.6453 53.1217 68.6618 51.8435Z" fill="#FADA07"/>
<path d="M36.2438 49.0753C36.7167 45.9375 38.9519 43.0821 42.6154 42.3336C47.8858 41.2554 52.2669 44.0049 53.2645 48.5527C54.0151 51.9777 53.5186 55.1838 50.7869 57.7308C49.7422 58.7053 48.5117 59.3291 47.14 59.6446C43.4977 60.4873 40.206 59.9388 37.7826 56.841C36.9073 55.7229 36.3379 54.3599 36.2202 52.8793C36.2297 51.6105 36.2367 50.3417 36.2438 49.0729V49.0753ZM40.2672 52.8181C41.0719 55.5298 43.0036 56.6739 44.9118 56.5868C46.9894 56.4926 48.5729 55.1862 49.1305 52.8863C49.3987 51.7776 49.2764 50.6336 49.2105 49.5014C49.1117 47.7688 47.7235 46.074 46.0294 45.6267C43.3848 44.93 41.1519 46.3329 40.2601 49.2565C40.0249 50.4429 40.0201 51.6317 40.2672 52.8181Z" fill="#FADA07"/>
<path d="M75.6545 42.5148C78.8474 42.4183 82.0661 42.0464 85.1672 43.1669C87.6942 44.0802 89.3812 45.7491 90.4306 48.3361C92.6305 53.7526 88.113 58.8442 83.0755 59.4303C80.6661 59.7105 78.245 59.661 75.8286 59.501C75.7933 58.7618 75.7322 58.0227 75.7275 57.2835C75.6969 52.3614 75.678 47.4393 75.6545 42.5148ZM79.7038 50.9702H79.7156C79.7156 52.0295 79.7179 53.0888 79.7156 54.1457C79.7085 56.4597 79.7109 56.4808 82.0285 56.1842C85.7695 55.7087 87.6824 52.5709 86.2166 48.7551C85.4425 46.7425 82.5767 45.5373 80.2426 45.7774C79.6474 45.8386 79.7062 46.2246 79.7062 46.6154C79.7062 48.0654 79.7062 49.5178 79.7062 50.9679L79.7038 50.9702Z" fill="#FADA07"/>
<path d="M3.08698 51.2174C3.09169 52.0907 2.42817 52.7522 1.59055 52.7145C0.691747 52.6745 0.251759 52.1119 0.167055 51.288C0.0847043 50.4877 0.818803 49.7367 1.61172 49.765C2.54817 49.8003 3.01639 50.3394 3.08463 51.2174H3.08698Z" fill="#FADA07"/>
<path d="M75.6545 42.5148C75.678 47.4369 75.6945 52.3591 75.7275 57.2835C75.7322 58.0227 75.7933 58.7618 75.8286 59.501C75.7863 59.5245 75.7416 59.5339 75.6945 59.5269L75.7204 59.5292C75.678 59.4233 75.598 59.3174 75.598 59.2091C75.591 53.6443 75.4757 48.0772 75.6545 42.5125V42.5148Z" fill="#FAFAFA"/>
<path d="M1.2682 59.6587C1.91289 59.0537 2.21641 58.5405 2.86581 58.7501C3.06816 58.816 3.15521 59.0537 3.05875 59.2256C2.69405 59.8823 2.09642 59.5363 1.2682 59.6563V59.6587Z" fill="#FADA07"/>
<path d="M36.2438 49.0753C36.2367 50.3441 36.2273 51.6129 36.2202 52.8816C35.9638 51.6105 35.9214 50.3417 36.2438 49.0753Z" fill="#FAFAFA"/>
<path d="M75.7174 59.5315L75.6921 59.5269L75.6898 59.5731L75.7174 59.5315Z" fill="#FADA07"/>
<path d="M28.0581 18.8858C26.7193 21.654 25.3452 24.4035 24.0606 27.1976C23.6535 28.0803 23.2112 28.537 22.1641 28.4405C20.9595 28.3299 19.7336 28.3558 18.5242 28.4311C17.7666 28.4782 17.4325 28.1651 17.129 27.5295C15.8208 24.7825 14.4632 22.0589 13.122 19.326C13.0608 19.2012 12.9926 19.0788 12.7244 18.9894C12.5808 21.7035 12.4373 24.4199 12.2914 27.1341C12.2091 28.6594 12.1032 30.1824 12.0491 31.7101C12.0326 32.1762 11.8656 32.3245 11.4256 32.3222C9.85857 32.3104 8.29155 32.3033 6.72453 32.3292C5.91749 32.3434 6.11043 31.7972 6.14102 31.3641C6.40219 27.6919 6.67277 24.0221 6.94805 20.3523C7.24216 16.4494 7.56921 12.5489 7.82333 8.64137C7.87038 7.89988 8.03273 7.59151 8.8233 7.63623C9.91739 7.69743 11.0232 7.72804 12.1103 7.62682C13.1455 7.5303 13.6044 7.95637 14.0161 8.86735C15.9784 13.2057 18.0231 17.5064 20.0418 21.8212C20.1383 22.0283 20.2654 22.219 20.4159 22.485C21.3006 21.647 21.5712 20.5124 22.0465 19.5214C23.79 15.8986 25.4582 12.2406 27.1358 8.58488C27.4463 7.90929 27.8322 7.57268 28.644 7.62682C29.891 7.71156 31.1498 7.66213 32.4039 7.64094C32.9215 7.63152 33.1521 7.76335 33.1921 8.35183C33.7332 16.0399 34.2956 23.7255 34.8885 31.4088C34.945 32.1362 34.8085 32.374 34.0438 32.3363C32.6768 32.2727 31.3027 32.308 29.931 32.3292C29.3051 32.3387 28.9898 32.2374 28.9545 31.4489C28.7663 27.2682 28.491 23.09 28.2463 18.9117C28.1851 18.9023 28.1216 18.8929 28.0604 18.8834L28.0581 18.8858Z" fill="#FAFAFA"/>
<path d="M49.5117 7.73981C50.6034 7.73981 51.9069 7.37024 52.7257 7.84338C53.5469 8.31888 53.608 9.74303 53.9892 10.7576C56.5821 17.6829 59.1655 24.613 61.7796 31.5312C62.0525 32.2563 61.7796 32.3363 61.1843 32.3292C59.6173 32.3151 58.0503 32.2869 56.4856 32.3363C55.7915 32.3598 55.6291 31.9479 55.4644 31.4489C55.1115 30.3755 54.6809 29.3185 54.4315 28.2216C54.2833 27.5742 53.9657 27.5295 53.4504 27.5319C50.7869 27.5436 48.1235 27.5601 45.4624 27.5201C44.9141 27.513 44.7141 27.7155 44.573 28.1769C44.2412 29.2597 43.8506 30.326 43.5377 31.4159C43.3518 32.0632 43.0648 32.3716 42.3236 32.341C40.8389 32.2775 39.3472 32.2986 37.8602 32.3387C37.1755 32.3575 37.0414 32.155 37.2767 31.5265C39.6978 25.0508 42.1001 18.568 44.5094 12.0899C44.9588 10.88 45.46 9.68889 45.8553 8.46012C46.0623 7.81749 46.3964 7.60328 47.0435 7.64094C47.8623 7.68802 48.6882 7.65271 49.5093 7.65271V7.74452L49.5117 7.73981ZM46.3212 22.7463C48.2105 22.7463 49.994 22.7157 51.7775 22.7628C52.4904 22.7816 52.6598 22.5909 52.4457 21.913C51.4669 18.8105 50.514 15.7009 49.4881 12.3912C48.4082 15.9269 47.38 19.286 46.3212 22.7486V22.7463Z" fill="#FAFAFA"/>
<path d="M40.2625 49.2589C40.2625 50.4453 40.2672 51.634 40.2695 52.8204C40.0225 51.634 40.0272 50.4476 40.2625 49.2589Z" fill="#FAFAFA"/>
<path d="M46.3212 22.7463C47.3799 19.286 48.4082 15.9245 49.4881 12.3889C50.514 15.6985 51.4669 18.8105 52.4457 21.9106C52.6598 22.5886 52.4904 22.7792 51.7775 22.7604C49.994 22.7133 48.2105 22.7439 46.3212 22.7439V22.7463Z" fill="#010101"/>
</g>
<defs>
<clipPath id="clip0_2203_2904">
<rect width="91" height="60" fill="white"/>
</clipPath>
</defs>
</svg>
